<svg width="55" height="54" viewBox="0 0 55 54" fill="none" xmlns="http://www.w3.org/2000/svg">
<path fill-rule="evenodd" clip-rule="evenodd" d="M27.1925 28.6254H11.4844L3.69824 42.2963H19.4517L27.1925 28.6254ZM35.1736 14.601L27.3197 0.79422L19.4431 14.601L27.3197 28.4304L35.1736 14.601ZM35.1655 42.2963H50.9187L43.1326 28.6254H27.4244L35.1655 42.2963Z" fill="white"/>
<path fill-rule="evenodd" clip-rule="evenodd" d="M34.467 53.0083H35.6434V46.724H34.467V53.0083ZM47.66 53.0083H48.8366V46.724H47.66V53.0083ZM12.3573 53.0083H13.5336V46.724H12.3573V53.0083ZM18.03 46.724H14.3917V47.7897H15.6044V53.0083H16.8172V47.7897H18.03V46.724ZM45.3045 49.1128H42.6557V46.724H41.4794V53.0083H42.6557V50.1785H45.3045V53.0083H46.4803V46.724H45.3045V49.1128ZM8.56015 49.5353L7.45749 46.724H6.09766V53.0083H7.27371V49.1128L8.56015 52.2365L9.8096 49.0761V53.0083H10.9854V46.724H9.66253L8.56015 49.5353ZM27.9962 46.7246H26.8308V51.2081C26.8308 51.6961 26.2842 52.0914 25.7962 52.0914C25.3085 52.0914 24.7619 51.6961 24.7619 51.2081V46.7246H23.5749L23.5923 51.1531C23.5923 52.2869 24.6622 53.2061 25.7959 53.2061C26.9299 53.2061 27.9998 52.2869 27.9998 51.1531L27.9962 46.7246ZM32.532 49.609C32.6973 49.4986 33.3221 49.131 33.3221 48.3413C33.3221 47.2384 32.4402 46.7425 31.8518 46.7243H29.1274V53.0086H31.5392C32.4951 53.0086 33.5238 52.5491 33.5238 51.3364C33.524 50.2889 33.0285 49.8844 32.532 49.609ZM31.595 51.9426H30.3043V47.7897H31.5398C31.8709 47.7897 32.1281 48.0654 32.1281 48.3962C32.1281 48.7271 31.9995 49.1128 31.5585 49.1128H31.0447V50.1788H31.5952C31.9264 50.1788 32.3852 50.4912 32.3673 51.1341C32.3511 51.6851 31.9073 51.9426 31.595 51.9426ZM18.5009 50.9688C18.4916 51.033 18.5009 51.1066 18.5051 51.226C18.5051 52.3096 19.3833 53.1329 20.467 53.1329C21.5506 53.1329 22.4288 52.4018 22.4288 51.3179C22.4288 50.7478 22.2055 50.3074 21.8175 49.9488C21.5007 49.6563 20.5981 49.2176 20.2465 49.0025C19.9156 48.8002 19.7596 48.6444 19.7517 48.3503C19.7517 47.9197 20.0364 47.6166 20.467 47.6166C20.6737 47.6166 20.872 47.6987 21.0182 47.8449C21.1645 47.9911 21.2466 48.1894 21.2466 48.3962C21.2544 48.5066 21.2572 48.6167 21.2572 48.6901H22.2991V48.3962C22.2991 47.3846 21.6615 46.5826 20.467 46.5826C19.4553 46.5826 18.6348 47.2754 18.6348 48.3962C18.6384 48.8924 18.8682 49.37 19.438 49.7468C20.0501 50.1513 20.816 50.4539 21.0732 50.7114C21.2284 50.8666 21.3245 51.0809 21.3245 51.3176C21.3245 51.791 20.9404 52.1292 20.4667 52.1292C19.9929 52.1292 19.6122 51.7126 19.554 51.3176C19.5416 51.2167 19.5111 51.0422 19.5203 50.9685H18.5009V50.9688ZM38.3644 49.0025C38.0333 48.8002 37.8775 48.6444 37.8691 48.3503C37.8691 47.9197 38.1543 47.6166 38.5849 47.6166C38.7916 47.6167 38.9897 47.6989 39.1358 47.8451C39.2819 47.9913 39.364 48.1895 39.364 48.3962C39.3721 48.5066 39.3749 48.6167 39.3749 48.6901H40.4168V48.3962C40.4168 47.3846 39.7789 46.5826 38.5849 46.5826C37.5727 46.5826 36.7525 47.2754 36.7525 48.3962C36.7564 48.8924 36.9861 49.37 37.5556 49.7468C38.168 50.1513 38.934 50.4539 39.1911 50.7114C39.3461 50.8666 39.4421 51.0809 39.4421 51.3176C39.4421 51.791 39.0581 52.1292 38.5846 52.1292C38.1109 52.1292 37.7299 51.7126 37.6713 51.3176C37.6593 51.2167 37.6288 51.0422 37.638 50.9685H36.618C36.6087 51.0327 36.618 51.1064 36.6225 51.2257C36.6225 52.3093 37.5007 53.1327 38.5846 53.1327C39.6679 53.1327 40.5462 52.4015 40.5462 51.3176C40.5462 50.7475 40.3229 50.3071 39.9349 49.9485C39.6184 49.6563 38.7157 49.2176 38.3644 49.0025Z" fill="white"/>
</svg>
