<svg width="106" height="54" viewBox="0 0 106 54" fill="none" xmlns="http://www.w3.org/2000/svg">
<path d="M46.1574 35.8789C46.5322 35.8789 48.8115 35.8669 50.6515 35.7403C52.8752 35.5871 54.0213 34.8343 54.8611 33.7558C55.9026 32.4209 55.8959 29.9177 55.8945 27.9698C55.8932 25.7945 55.9237 19.4921 55.9142 18.9301C55.9068 18.366 55.6906 18.0729 55.0373 18.0782C54.3832 18.0823 52.539 18.0782 51.906 18.0836L50.7782 18.0782C50.1243 18.073 49.9087 18.366 49.8993 18.9301V19.5343C49.9087 20.2014 49.8904 26.56 49.8877 28.0508V28.7112C49.8701 30.0843 49.7007 31.4199 47.7338 31.6266C46.8853 31.715 46.4964 31.7544 45.445 31.7544C44.3927 31.7544 44.0049 31.715 43.1448 31.6266C41.1786 31.4225 41.0594 30.0843 41.0411 28.7112V28.0508C41.0384 26.56 41.0201 20.2014 41.0282 19.5343V18.9301C41.0201 18.366 40.8032 18.0729 40.1506 18.0782L39.0214 18.0836C38.3884 18.0782 36.5456 18.0823 35.8909 18.0782C35.2383 18.073 35.022 18.366 35.0146 18.9301C35.0051 19.4921 35.0119 25.7945 35.0092 27.9698C35.008 29.9177 35.0025 32.4209 36.0428 33.7558C36.8805 34.8344 38.0109 35.5871 40.2271 35.7403C42.0673 35.8681 44.2788 35.8789 44.7688 35.8789H46.1575H46.1574ZM6.18879 35.061C6.17589 35.6733 5.99291 35.9149 5.35789 35.9296C4.72075 35.9477 1.60379 35.9377 1.03593 35.933C0.470608 35.9269 0.122317 35.7575 0.120942 35.1588C0.116923 34.5605 0.116923 19.5193 0.112798 18.9479C0.111423 18.3793 0.383244 18.1096 0.980299 18.1276C1.57608 18.1417 4.6374 18.1116 5.45001 18.1256C6.06473 18.1209 6.2091 18.4709 6.21111 19.0959C6.22602 19.9363 6.20371 34.4522 6.18879 35.061V35.061ZM91.1189 28.9763C91.1306 30.3881 91.4761 31.3329 93.115 31.5845C94.427 31.7183 96.2021 31.7458 97.5644 31.6093C98.8113 31.4741 99.7717 30.9749 99.828 29.5811C99.891 28.4042 99.8964 28.2014 99.9005 26.9602C99.9073 23.9478 99.8741 19.5724 99.8842 19.1429L99.8895 18.9602C99.8795 18.2931 100.188 18.0114 100.76 18.0114L101.102 18C101.753 18.0054 104.374 18.0115 105.009 18.0115C105.581 18.0115 105.889 18.2931 105.88 18.9603L105.871 19.1684C105.884 19.7973 105.864 26.4611 105.857 28.4276C105.821 29.4152 105.75 31.7157 104.979 33.1744C104.308 34.4404 103.108 35.4139 101.066 35.6139C97.1408 36 93.5622 35.8395 90.8065 35.7257C88.7584 35.6213 87.4389 35.1683 86.3442 33.9672C85.1053 32.5902 85.0403 30.2369 85.0586 27.5377C85.0349 21.5818 85.0166 19.8656 85.026 19.2974V18.9602C85.0165 18.2931 85.3249 18.0114 85.8969 18.0114L86.2371 18C86.8946 18.0054 89.6136 18.0115 90.2494 18.0115C90.8194 18.0115 91.1304 18.2931 91.1189 18.9603C91.1094 19.63 91.1163 27.2573 91.1189 28.9375V28.9763ZM60.5899 18.0641C61.2026 18.0462 72.1604 18.0589 75.5864 18.0776C78.62 18.111 79.7417 18.5372 80.5652 19.6253C81.5153 20.8825 81.6136 22.4576 80.8457 23.7537C80.2946 24.683 79.2753 25.4941 77.7464 26.2308C76.5326 26.8464 74.4071 27.7805 72.3298 28.6831C69.5477 29.8963 67.0285 30.9467 66.605 31.1656C66.0315 31.4627 66.2485 31.9076 66.7039 31.9009C67.8927 31.8868 79.371 31.7945 79.9837 31.7932C80.599 31.7926 80.7989 32.0114 80.7989 32.6637C80.7976 33.3462 80.8043 34.5131 80.8057 35.0425C80.7915 35.6788 80.5861 35.8528 79.9754 35.8588C79.2781 35.8661 67.0509 35.8695 66.1813 35.8734C64.2484 35.8688 62.2579 35.8761 61.0705 35.3081C59.5877 34.5968 59.086 33.1709 59.0846 32.1713C59.1552 29.735 60.5304 28.9548 63.0082 27.8213C65.7632 26.5867 73.8961 23.1134 74.3807 22.8912C74.9812 22.6149 74.7948 22.0715 74.2377 22.0896C73.81 22.0983 61.3524 22.1612 60.737 22.1607C60.1236 22.1586 59.7333 22.0608 59.7333 21.4734C59.7346 20.8886 59.7279 19.4219 59.7279 18.8183C59.7279 18.2121 59.9746 18.0836 60.5899 18.0642V18.0641ZM28.4168 27.2256C25.6611 26.0956 17.6204 23.5844 16.5536 23.0632C16.0399 22.8449 16.0745 22.1973 16.7698 22.1973C17.9573 22.2146 29.7432 22.2374 30.3587 22.2415C30.9733 22.2428 31.2323 22.0065 31.2323 21.3529C31.2349 20.671 31.2302 19.4198 31.222 18.8705C31.2139 18.3118 31.0099 18.1002 30.5015 18.0989C29.9933 18.0989 16.3814 18.115 16.3814 18.115C12.5827 18.1063 11.6082 18.6583 10.5319 19.9343C9.1288 21.5991 9.57471 23.8528 10.3799 25.015C11.2868 26.315 12.784 26.8898 15.1662 27.7128C18.052 28.6396 24.8484 30.9996 24.8484 30.9996C25.4713 31.2652 25.4238 31.9096 24.6546 31.9096C24.6546 31.9096 11.69 31.7944 11.076 31.7932C10.4606 31.7926 10.1603 32.0889 10.1577 32.6757C10.1577 33.2626 10.1522 34.3378 10.1496 34.9479C10.1496 35.5515 10.327 35.8961 10.9425 35.9176C11.5538 35.9384 22.7013 35.8968 26.1294 35.8901C28.7374 35.8835 31.2565 35.0879 31.7736 32.2442C32.0834 29.7938 31.0328 28.2749 28.4168 27.2257" fill="white"/>
</svg>
