<svg width="77" height="54" viewBox="0 0 77 54" fill="none" xmlns="http://www.w3.org/2000/svg">
<path fill-rule="evenodd" clip-rule="evenodd" d="M59.3756 47.2695V41.188C59.3756 40.0812 59.0181 38.7596 56.9562 38.7618H49.3256V50.0009H56.9562C58.2989 50.0009 59.3756 49.2057 59.3756 47.2695ZM55.9071 40.8226C56.5583 40.8226 56.9285 41.2481 56.9285 41.8627V46.7688C56.9285 47.2244 56.8562 47.7982 55.9071 47.8476H51.7471V40.8226H55.9071Z" fill="white"/>
<path d="M0.0078125 38.7596H2.42721V43.1887H7.84053V38.7596H10.2599V49.9987H7.84053V45.4107H2.42721V49.9987H0.0078125V38.7596ZM14.4072 38.7596L17.4394 43.352L20.4354 38.7596H23.374L18.648 45.9436V49.9987H16.2286V45.9436L11.4686 38.7596H14.4072ZM36.9542 38.7596H44.7507C45.8615 38.7596 46.9382 38.9165 46.9062 41.188V50.0009H44.4869V41.996C44.4869 41.0268 44.3719 40.8226 43.6208 40.8226H39.3736V50.0009H36.9542V38.7596ZM74.5729 38.7618H76.9923V50.0009H74.5729V38.7618ZM32.3792 49.9987C33.9304 49.9987 34.5667 49.5453 34.5348 47.2867V38.7596H32.1154V46.7817C32.1154 47.7445 32.0005 47.8605 31.2472 47.8605H26.9999V38.7596H24.5806V49.9987H32.3792Z" fill="white"/>
<path fill-rule="evenodd" clip-rule="evenodd" d="M59.4436 7.62543C63.3206 9.76795 67.7083 13.5351 67.2508 18.5572C66.7188 23.2119 62.4227 26.4611 58.584 28.4188C47.3743 33.8299 31.6323 33.9954 20.0588 29.2677C16.1477 27.6237 11.7579 24.7978 10.1131 20.5515C8.85338 17.0615 10.3876 13.4255 12.9666 11.0058C18.3607 6.05669 25.2359 4.359 32.3111 3.37908C39.9906 2.43783 48.0723 3.26948 54.9474 5.65053C56.4838 6.22431 57.9988 6.8518 59.4436 7.62543ZM43.0276 26.8148C43.9494 25.1148 44.9086 23.3461 44.506 21.2542C44.2145 20.4784 43.391 19.9068 42.5696 19.7972C40.5863 19.5382 38.7085 20.0869 36.9425 20.6029L36.9201 20.6095C36.7102 20.6805 36.5002 20.7513 36.2901 20.8221C31.7432 22.3557 27.179 23.8951 23.3166 27.0542C23.1336 27.2197 23.0038 27.4604 23.0953 27.7183C23.2151 27.9012 23.3978 28.0329 23.6081 28.0879C28.1787 29.467 32.9164 30.2003 37.6861 30.2669C39.8629 30.4861 41.6716 29.0098 42.7696 27.2928C42.8545 27.1339 42.9409 26.9746 43.0276 26.8148ZM64.7825 19.0192C65.4783 15.9183 63.4292 13.3503 61.163 11.4678C60.997 11.3555 60.8357 11.2305 60.6739 11.1051C60.1948 10.7339 59.7119 10.3598 59.0947 10.3052C58.9395 10.3617 58.8011 10.4571 58.6925 10.5824C57.8158 12.5401 56.8647 14.5344 55.8412 16.4727C53.6282 20.7749 51.1045 25.0213 47.7787 28.8078L47.7233 29.0657C47.7531 29.2475 47.9193 29.2553 48.0591 29.2618C48.0894 29.2632 48.1185 29.2646 48.1446 29.2677C50.4344 29.0511 52.549 28.339 54.6419 27.6342L54.7815 27.5872C58.7117 26.0378 63.6484 23.5987 64.7825 19.0192ZM29.1831 6.869L29.2576 6.59178C29.1455 6.38234 28.8776 6.38496 28.6425 6.38726C28.6098 6.38758 28.5778 6.38789 28.5469 6.38763C26.1534 6.78289 23.8066 7.42669 21.5441 8.3088C17.7756 9.91408 13.2602 12.2801 12.1452 16.7113C11.4494 20.1088 13.8624 22.9712 16.5308 24.7441C16.672 24.8077 16.8159 24.9068 16.9622 25.0075C17.3647 25.2848 17.7847 25.5741 18.2139 25.1674C21.2121 18.7979 24.3741 12.3897 29.1831 6.869ZM53.3568 7.58788C53.2759 7.55421 53.1945 7.52031 53.1175 7.4793C48.5298 6.18563 43.7016 5.412 38.5798 5.44638C36.203 5.48291 34.4858 7.71784 33.5155 9.61967C32.7835 11.1325 31.943 12.942 32.5643 14.6783C32.7196 14.9513 32.9274 15.1901 33.1756 15.3805C33.4237 15.571 33.7072 15.7093 34.0092 15.7872C35.9777 16.223 37.8004 15.6989 39.5825 15.1864C40.0677 15.0469 40.5499 14.9083 41.0312 14.7901C45.4571 13.3309 49.7895 11.6698 53.575 8.67842C53.6062 8.63992 53.6422 8.60133 53.6789 8.56192C53.8348 8.3946 54.0045 8.21246 53.8857 7.95852C53.7678 7.75909 53.564 7.67422 53.3568 7.58788Z" fill="white"/>
<path fill-rule="evenodd" clip-rule="evenodd" d="M72.1534 50.0009H69.7341V46.7688H64.2143V50.0009H61.7949V41.188C61.7949 39.63 62.4184 38.7596 64.2143 38.7596H72.1534V50.0009ZM65.1911 40.8248C64.4272 40.8699 64.2165 41.0612 64.2165 41.9981V44.5747H69.7362V40.8248H65.1911Z" fill="white"/>
</svg>
