<svg width="57" height="54" viewBox="0 0 57 54" fill="none" xmlns="http://www.w3.org/2000/svg">
<path d="M39.1297 51.632H42.5111C42.5111 51.632 43.9888 51.6204 43.9888 49.4145C43.9888 47.1634 42.5111 47.1601 42.5111 47.1601H39.1297V51.632ZM18.0366 50.1269C17.6769 50.1269 17.3852 50.444 17.3852 50.8352C17.3852 51.2263 17.6767 51.5432 18.0366 51.5432L21.9795 51.5425V50.1275L18.0366 50.1269ZM50.1262 50.1271C49.7665 50.1271 49.4749 50.444 49.4749 50.8352C49.4749 51.2263 49.7663 51.5434 50.1262 51.5434L54.0692 51.5427V50.1275L50.1262 50.1271ZM48.7494 48.2982L54.1264 48.2984C54.1273 47.7999 54.0911 47.0105 52.8628 47.0099C51.5941 47.0093 47.3476 47.0099 47.3476 47.0099V44.7624C47.3476 44.7624 51.4477 44.7634 54.0692 44.763C55.7061 44.7627 56.9998 45.3976 57 47.2584L56.9989 53.9942H48.7675L48.8614 54C47.7714 54 46.8547 53.0868 46.5975 51.8525C45.8646 53.9937 44.0924 53.993 42.7216 53.9897L36.0952 53.9899V46.7583L26.771 53.994H16.6779L16.7718 53.9996C15.8664 53.9996 15.0807 53.3699 14.6931 52.4492L14.692 53.9938H11.8119V48.0519C11.8119 48.0519 11.8029 47.2605 10.9191 47.2586H8.79003V53.9938H5.94091V47.2586H2.95333V53.9938H0L0.00603208 44.7623L12.028 44.7619C13.3548 44.7619 14.6979 45.5909 14.6979 47.2586L14.6969 49.8396C15.0849 48.9221 15.8684 48.2949 16.7718 48.2949L16.6616 48.2972H22.0388C22.0395 47.7986 22.0032 47.0095 20.775 47.0089C19.5064 47.0084 15.2599 47.0089 15.2599 47.0089V44.7612C15.2599 44.7612 19.3598 44.7621 21.9814 44.7617C23.6184 44.7614 24.9121 45.3963 24.9123 47.2572L24.9114 51.8899L34.3267 44.7612H42.7462C44.4958 44.7612 46.9395 44.7613 46.9395 49.3634L46.9384 49.5293C47.3594 48.7832 48.0636 48.2942 48.8613 48.2942L48.7511 48.2965L48.7494 48.2982ZM25.9422 44.7623H32.6628L29.6868 47.2588H25.9403L25.9422 44.7623ZM35.2221 53.9869H28.5016L31.4777 51.4906H35.224L35.2221 53.9869Z" fill="white"/>
<path fill-rule="evenodd" clip-rule="evenodd" d="M13.0237 33.2414C11.6248 32.3783 11.1795 31.2829 9.05369 30.4041C6.9362 27.6212 6.11477 24.1589 6.1151 20.6946C6.1151 18.166 6.55317 15.6367 7.24365 13.3692L9.37873 17.6334C9.25109 18.5811 9.19464 19.6086 9.19464 20.7036C9.19464 34.8333 18.5369 37.6841 28.3908 37.6519C38.2448 37.6838 47.587 34.8334 47.587 20.7036C47.5872 19.2541 47.4887 17.9222 47.3013 16.7012L48.8285 13.5473C50.9314 18.7984 50.5204 27.8836 45.4626 31.1006C44.597 32.3911 43.8122 33.3467 42.5857 34.3179C38.2153 37.7786 31.8852 38.2212 26.537 38.0216C22.0431 37.8537 16.979 36.9316 13.5533 33.7731L13.0237 33.2414ZM7.2524 7.79736L6.95909 7.50386C4.44326 10.5648 2.86003 14.8194 2.86003 20.7036C2.86003 38.5186 17.3532 41.4074 28.3909 41.4074C39.4288 41.4073 53.9219 38.5186 53.9219 20.7036C53.9219 14.8198 52.3387 10.5649 49.823 7.50404L49.5306 7.78779C49.4769 9.34503 49.2089 10.9583 48.9856 12.4816C50.0874 14.8639 50.6083 17.6943 50.6827 20.7035C50.8442 29.5529 46.3613 38.8506 28.3908 39.4557C17.0938 39.3666 9.99468 35.8712 7.09419 28.5674C5.17369 27.3426 4.23585 25.0875 3.34569 22.8988C2.98788 18.2866 3.65076 13.1048 6.23464 9.1656L6.78393 8.39747C6.99335 9.89823 7.25314 11.8902 7.71581 12.2721C13.4332 17.0885 23.4955 16.4674 28.3372 26.1743C33.5986 15.4098 42.888 16.7699 48.6053 11.9535L49.1372 7.3401C42.4701 14.571 33.4085 12.1184 28.3372 22.9336C22.8729 12.3157 13.9362 14.936 7.2524 7.79736ZM11.7318 10.3812C15.1612 5.0579 21.6565 3.73323 28.3908 3.75521C35.0112 3.73198 41.4008 5.01334 44.8886 10.1746L49.0139 7.04075L49.0129 7.03951L49.2573 6.85377C44.0806 1.20635 35.5168 5.03006e-10 28.3906 5.03006e-10C21.1145 -2.90373e-05 12.3391 1.25723 7.20166 7.21568L7.29854 7.2949L7.29757 7.29561L7.51155 7.46894C8.62025 8.55769 9.84644 9.70053 11.0898 10.3539C11.2908 10.4422 11.5177 10.478 11.7317 10.383L11.7318 10.3812ZM48.6348 6.77916L46.7747 7.95102C41.2606 3.08489 35.3857 1.89539 28.3908 1.94371C21.3235 1.89522 15.1231 3.15748 9.68121 8.35121L7.77466 7.17881C9.73822 5.08092 11.9173 3.67125 14.579 2.6094C20.3848 0.293022 28.6264 -0.0162906 34.7959 0.780711C39.737 1.41902 44.8588 3.00263 48.4741 6.60759L48.6348 6.77916ZM28.3372 29.4513C25.9773 24.3703 23.3999 22.0758 19.4612 20.4367L9.60496 17.104L8.24364 13.3343C10.6698 15.2 14.2394 16.4653 17.6462 17.7851C22.8976 19.798 25.7536 22.3572 28.3372 27.5937L28.3372 29.4513ZM28.3372 29.4513C30.6971 24.3703 33.2746 21.7478 37.2132 20.1088L46.9607 16.6122L48.3158 12.9632C45.8895 14.829 42.0539 16.2468 38.6472 17.5666C33.3956 19.5795 30.9209 22.3572 28.3372 27.5937L28.3372 29.4513ZM45.5154 13.4727C46.3138 13.0534 47.0985 12.6117 47.8211 12.0681L48.2288 11.7431L48.61 8.43841C45.4272 11.3864 42.2706 12.445 38.2993 14.1584C37.7146 14.4293 36.1605 15.1118 35.6322 15.4767C34.0193 16.8556 33.2119 18.1924 32.8816 19.6053C34.9276 17.9346 37.1042 16.8656 39.5415 15.8903C41.5434 15.0893 43.5733 14.4068 45.5154 13.4727ZM33.7337 16.7141C33.2945 17.0293 31.9764 18.151 31.6915 18.5584C31.1293 19.6211 30.8801 20.5939 30.9048 21.5352L32.015 20.3703L32.2963 20.1157C32.4532 18.9956 32.9329 17.8736 33.7337 16.7141ZM19.4913 15.0402C18.0984 14.3584 16.0319 13.6069 14.5607 13.0053C11.5659 11.6977 9.49548 10.638 7.15999 8.275C7.24358 8.85236 7.32896 9.42773 7.4207 10.0016C7.5055 10.4709 7.66543 11.6445 8.00296 11.9907C8.39876 12.3966 9.71109 13.2111 10.2391 13.5057C12.597 14.8216 15.305 15.7065 17.788 16.7166C19.4002 17.4162 20.9837 18.1371 22.4678 19.0862C21.6361 17.6994 20.5852 16.3682 19.4913 15.0402Z" fill="white"/>
</svg>
