<svg width="64" height="54" viewBox="0 0 64 54" fill="none" xmlns="http://www.w3.org/2000/svg">
<path d="M9.68037 20.7845C12.4461 11.1166 21.5604 4.03094 32.4032 4.03094C43.1832 4.03094 52.2975 11.0851 55.0946 20.7215C55.0946 20.753 55.0946 20.7845 55.1261 20.816C56.7289 20.6271 58.1746 20.3436 59.1804 20.0917C59.1489 20.0287 59.1489 20.0287 59.1489 19.9657C55.9746 8.43978 45.1946 0 32.4032 0C19.5804 0 8.76894 8.50276 5.62608 20.0287C7.04037 20.4066 8.07751 20.5641 9.68037 20.7845Z" fill="white"/>
<path d="M55.0318 33.4442C55.0004 33.5387 54.9689 33.6331 54.9689 33.6646C52.0147 43.0807 43.0261 49.9144 32.4032 49.9144C21.6861 49.9144 12.6661 42.9862 9.77465 33.4442C8.01465 33.7591 7.41751 33.8851 5.68894 34.1055C8.92608 45.537 19.6432 53.9138 32.4032 53.9138C45.1632 53.9138 55.9118 45.5055 59.1175 34.074C57.5775 33.9166 56.6975 33.7591 55.0318 33.4442Z" fill="white"/>
<path d="M10.2775 20.753C10.9375 20.4696 11.5975 20.0287 12.6032 19.7453C15.6204 11.9354 23.3518 6.36132 32.4347 6.36132C41.4861 6.36132 49.2175 11.9039 52.2347 19.6823C52.2347 19.7138 52.2661 19.7453 52.2661 19.7453C52.8004 19.9342 54.3089 20.5326 54.7804 20.753C54.8432 20.753 55.0004 20.753 55.1261 20.753C55.1261 20.7215 55.0947 20.69 55.0947 20.6586C52.2975 11.0221 43.1832 3.96795 32.4032 3.96795C21.5918 3.96795 12.4775 11.0536 9.68037 20.7215C9.86894 20.7845 10.1518 20.753 10.2775 20.753Z" fill="white"/>
<path d="M32.2461 4.66077C42.3661 4.66077 51.3547 10.7072 54.7489 20.69C54.7489 20.7215 54.7804 20.753 54.7804 20.7845C54.8432 20.7845 55.0318 20.7845 55.1261 20.7845C55.1261 20.753 55.0947 20.7215 55.0947 20.69C52.2975 11.0536 43.1832 3.99944 32.4032 3.99944C21.5918 3.99944 12.4775 11.0851 9.68037 20.753C9.90037 20.753 9.99466 20.753 10.2461 20.7215C13.2947 11.274 22.1889 4.66077 32.2461 4.66077Z" fill="white"/>
<path d="M54.4661 33.4757C53.7432 33.8851 52.8318 34.263 52.1089 34.5149C52.1089 34.5464 52.0461 34.6409 52.0461 34.6724C48.9032 42.2304 41.2975 47.584 32.4032 47.584C23.4461 47.584 15.8089 42.1674 12.6975 34.5464C11.8489 34.326 10.6232 33.7591 10.1518 33.5072C9.96323 33.5072 9.86894 33.5072 9.77465 33.4757C12.6661 42.9862 21.6861 49.9459 32.4032 49.9459C43.0575 49.9459 52.0775 43.0807 54.9689 33.6331C54.9689 33.6017 55.0004 33.5072 55.0004 33.5072C54.8747 33.4442 54.5918 33.4757 54.4661 33.4757Z" fill="white"/>
<path d="M54.4661 33.4757C51.3232 42.7657 42.5232 49.253 32.5918 49.253C22.5347 49.253 13.6404 43.3011 10.1832 33.4757C10.0575 33.4757 9.93181 33.4757 9.80609 33.4442C12.6975 42.9547 21.7175 49.9144 32.4347 49.9144C43.1518 49.9144 52.1718 42.9547 55.0632 33.4442C54.8432 33.4442 54.6547 33.4757 54.4661 33.4757Z" fill="white"/>
<path d="M54.4661 33.4757C53.7118 33.8851 52.8004 34.263 52.0775 34.5149C52.0775 34.5464 52.0147 34.6409 52.0147 34.6724C51.009 37.0657 49.5947 39.2387 47.8032 41.0967C50.6318 39.0182 52.8947 36.4359 54.4661 33.4757Z" fill="white"/>
<path d="M17.6004 41.6635C15.4947 39.6481 13.8289 37.2232 12.7289 34.5149C11.8804 34.2945 10.6547 33.7276 10.1832 33.4757C10.6861 34.5464 11.2832 35.5226 11.9432 36.4674C13.3261 38.2624 15.0232 39.9 16.9089 41.2541C17.1289 41.3801 17.3804 41.5376 17.6004 41.6635Z" fill="white"/>
<path d="M9.77465 33.4442C8.01465 33.7591 7.41751 33.8851 5.68894 34.1055C5.81465 34.6094 5.9718 35.0818 6.16037 35.5856L9.77465 33.4442Z" fill="white"/>
<path d="M42.5861 25.2249C42.5861 25.2563 42.0832 26.453 41.5489 27.6812H44.3461C44.1185 27.1024 43.8715 26.5236 43.6755 26.0644C43.5196 25.6993 43.3961 25.4098 43.3404 25.2563C43.3089 25.1619 43.2461 25.1304 43.1832 25.1304C43.1518 25.0989 43.0575 25.0989 42.9947 25.0989C42.9004 25.0989 42.8061 25.0989 42.7747 25.1304C42.6804 25.1304 42.6175 25.1619 42.5861 25.2249Z" fill="white"/>
<path fill-rule="evenodd" clip-rule="evenodd" d="M58.9918 20.0287C60.3432 20.1862 61.0032 20.2807 61.5689 20.4381C63.3604 20.8475 63.7375 21.4773 63.7375 22.7685V31.4917C63.7375 32.7514 62.3861 33.6331 61.4432 33.7906C60.5004 33.9796 59.9032 34.0425 58.9289 34.137C53.8689 34.4519 42.1775 35.1133 32.3089 35.1133C22.4404 35.1133 10.7175 34.4519 5.68894 34.137C4.71466 34.0425 4.11751 33.9796 3.17466 33.7906C2.2318 33.6331 0.880371 32.7514 0.880371 31.4917V22.7685C0.880371 21.4773 1.25751 20.8475 3.04894 20.4381C3.61466 20.2807 4.27465 20.1862 5.62608 20.0287C11.2832 19.7768 25.2061 19.2414 32.3089 19.2414C39.4118 19.2414 53.3347 19.7768 58.9918 20.0287ZM44.5338 23.652C44.7085 23.763 44.7907 24.0197 45.0689 24.6265C45.1946 24.9204 45.6617 25.9358 46.1695 27.0396C46.8044 28.4197 47.5029 29.9381 47.6775 30.358C47.7603 30.5515 47.7219 30.5509 47.5412 30.5479C47.5161 30.5474 47.4882 30.547 47.4575 30.547H45.7289C45.6347 30.547 45.5404 30.5155 45.5089 30.421C45.5089 30.3922 45.325 29.9685 45.0533 29.3424C45.0278 29.2838 45.0016 29.2234 44.9747 29.1613H40.9204C40.6061 29.8856 40.3547 30.421 40.3547 30.421C40.3232 30.484 40.2604 30.547 40.1347 30.547H38.4689C38.2175 30.547 38.1232 30.547 38.2804 30.232L38.3118 30.1691C39.0975 28.437 40.9518 24.2801 40.9518 24.2801C41.1316 23.9048 41.1828 23.7227 41.303 23.6349C41.4348 23.5385 41.6498 23.5558 42.2089 23.5558C42.4918 23.5243 42.5547 23.5243 42.9004 23.5243C43.2461 23.5243 43.4975 23.5243 43.5918 23.5558C44.134 23.5709 44.373 23.5498 44.5338 23.652ZM19.5175 23.6503C19.5175 23.5243 19.4861 23.4613 19.3289 23.4613H17.6318C17.5061 23.4613 17.4747 23.5243 17.4747 23.6503V30.2635C17.4747 30.4525 17.5061 30.484 17.6947 30.484H19.2975C19.4861 30.484 19.5175 30.421 19.5175 30.2635V23.6503ZM16.1232 23.7447C16.1232 23.5873 16.0918 23.5243 15.9032 23.5243H14.5204C14.3318 23.5243 14.3004 23.5873 14.3004 23.7447V29.0039C14.3004 29.0039 11.5032 24.6895 11.1575 24.1226C10.7383 23.5226 10.5759 23.5228 9.52869 23.5242C9.47671 23.5242 9.42256 23.5243 9.36609 23.5243H7.76323C7.57466 23.5243 7.54323 23.5873 7.54323 23.7447V30.3265C7.54323 30.5155 7.57466 30.547 7.76323 30.547H9.14609C9.33466 30.547 9.36609 30.5155 9.36609 30.3265V25.1619C9.36609 25.1619 11.6918 28.7204 12.4461 29.9171C12.8232 30.547 12.9175 30.547 14.0175 30.547H15.9032C16.0918 30.547 16.1232 30.5155 16.1232 30.3265V23.7447ZM57.2947 23.7447C57.2947 23.5873 57.2632 23.5243 57.0747 23.5243H55.6918C55.5032 23.5243 55.4718 23.5873 55.4718 23.7447V29.0039C55.4718 29.0039 52.7061 24.6895 52.3289 24.1226C51.9097 23.5226 51.7473 23.5228 50.7001 23.5242C50.6481 23.5242 50.594 23.5243 50.5375 23.5243H48.9347C48.7461 23.5243 48.7147 23.5873 48.7147 23.7447V30.3265C48.7147 30.5155 48.7461 30.547 48.9347 30.547H50.3175C50.5061 30.547 50.5375 30.5155 50.5375 30.3265V25.1619C50.5375 25.1619 52.8318 28.7204 53.6175 29.9171C53.9947 30.547 54.0889 30.547 55.1889 30.547H57.0747C57.2632 30.547 57.2947 30.5155 57.2947 30.3265V23.7447ZM28.7889 27.7127C28.5375 26.5475 27.6261 26.3271 26.4004 26.2011C26.2038 26.1832 25.9159 26.1602 25.5913 26.1343C24.7742 26.069 23.7253 25.9853 23.3204 25.9177C23.1004 25.8862 23.0061 25.7602 23.0061 25.6028V25.3193C23.0375 25.0989 23.1318 25.0044 23.3518 25.0044H28.2861C28.4747 25.0359 28.5375 24.9729 28.5375 24.8155V23.6818C28.5375 23.5243 28.4747 23.4928 28.2861 23.4928H23.2575C21.9375 23.4928 21.2147 23.9652 20.9947 24.9414C20.9632 25.1619 20.9632 25.4453 20.9632 25.6342C20.9632 25.8546 20.9632 26.1066 20.9947 26.2956C21.0575 26.8624 21.4347 27.4923 22.9432 27.6497C24.1061 27.7757 25.8347 27.9331 26.4318 27.9646C26.7004 27.9945 26.7423 28.1665 26.7727 28.2916C26.7744 28.2982 26.7759 28.3047 26.7775 28.311V28.7834C26.7461 28.9409 26.6832 29.0039 26.4632 29.0039H21.2147C21.0261 29.0039 20.9947 29.0354 20.9947 29.2243V30.3265C20.9947 30.5155 21.0261 30.547 21.2147 30.547H26.4004C27.7204 30.547 28.5375 30.3265 28.7575 29.2243C28.8204 28.9724 28.8204 28.6889 28.8204 28.4685C28.8204 28.2409 28.8068 28.027 28.7975 27.8801C28.7926 27.8035 28.7889 27.7451 28.7889 27.7127ZM37.6832 27.7127C37.4318 26.5475 36.5204 26.3271 35.2947 26.2011C35.092 26.1818 34.7796 26.1565 34.4277 26.128C33.6336 26.0637 32.6381 25.9831 32.2461 25.9177C31.9947 25.8862 31.9318 25.7602 31.9318 25.6028V25.3193C31.9632 25.0989 32.0575 25.0044 32.2775 25.0044H37.2118C37.4004 25.0359 37.4632 24.9729 37.4632 24.8155V23.6818C37.4632 23.5243 37.4004 23.4928 37.2118 23.4928H32.1832C30.8632 23.4928 30.1404 23.9652 29.9204 24.9414C29.8889 25.1619 29.8889 25.4453 29.8889 25.6342C29.8889 25.8546 29.8889 26.1066 29.9204 26.2956C30.0147 26.8624 30.3604 27.4923 31.8689 27.6497C33.0318 27.7757 34.7604 27.9331 35.3575 27.9646C35.6089 27.9961 35.6718 28.1851 35.7032 28.311V28.7834C35.6718 28.9409 35.6089 29.0039 35.3889 29.0039H30.1404C29.9518 29.0039 29.9204 29.0354 29.9204 29.2243V30.3265C29.9204 30.5155 29.9518 30.547 30.1404 30.547H35.2947C36.6147 30.547 37.4318 30.3265 37.6518 29.2243C37.7147 28.9724 37.7147 28.6889 37.7147 28.4685C37.7147 28.2409 37.7011 28.027 37.6918 27.8801C37.6869 27.8035 37.6832 27.7451 37.6832 27.7127Z" fill="white"/>
</svg>
