<svg width="56" height="54" viewBox="0 0 56 54" fill="none" xmlns="http://www.w3.org/2000/svg">
<path fill-rule="evenodd" clip-rule="evenodd" d="M12.4145 45.7853H15.8105V52.2715H12.4145L12.4129 50.9971C12.4129 50.4006 12.0037 50.0964 11.5873 50.0964H8.79923C8.38308 50.0964 7.9739 50.4006 7.9739 50.9971L7.97232 52.2715H4.97289V45.7853H7.97232L7.9739 46.8657C7.9739 47.4622 8.38308 47.7657 8.79923 47.7657H11.5873C12.0037 47.7657 12.4129 47.4622 12.4129 46.8657L12.4145 45.7853ZM18.6944 52.2715H22.252V45.7853H18.6944V52.2715ZM33.3115 47.6641C33.3115 47.991 33.176 48.0926 32.9171 48.0926C32.5216 48.0926 28.8253 45.7853 28.4534 45.7853H25.1293V52.2715H28.4531V49.5835C28.4531 49.3306 28.6009 49.1502 28.8709 49.1502C29.3152 49.1502 30.1446 49.4474 32.7481 51.2999C33.3336 51.7158 33.3111 52.0411 33.3111 52.2667V52.2718H36.6166V45.7856H33.3111L33.3115 47.6641ZM50.9688 48.3366V49.9085C50.9688 51.6145 50.2393 52.3072 48.507 52.594C47.4858 52.7626 46.013 52.8468 45.0759 52.8468C44.1389 52.8468 42.6661 52.7626 41.6455 52.594C39.9122 52.3072 39.1837 51.6142 39.1837 49.9085V48.3366C39.1837 46.3141 40.705 45.5223 42.3088 45.5223H47.8437C49.4479 45.5223 50.9688 46.3141 50.9688 48.3366ZM47.6769 48.317C47.6771 48.1802 47.6502 48.0448 47.5976 47.9186C47.5451 47.7923 47.468 47.6778 47.3709 47.5815C47.2738 47.4845 47.1586 47.4076 47.0317 47.3551C46.9049 47.3027 46.7689 47.2759 46.6317 47.2761H43.4715C43.3343 47.2758 43.1984 47.3026 43.0716 47.355C42.9449 47.4074 42.8297 47.4844 42.7328 47.5815C42.6357 47.6777 42.5586 47.7923 42.5061 47.9186C42.4536 48.0448 42.4266 48.1802 42.4268 48.317V49.7474C42.427 49.8843 42.4542 50.0198 42.5069 50.1462C42.5595 50.2726 42.6365 50.3874 42.7335 50.484C42.8305 50.5806 42.9457 50.6572 43.0723 50.7093C43.1989 50.7614 43.3346 50.788 43.4715 50.7876H46.6317C47.2076 50.7876 47.6769 50.3214 47.6769 49.7474V48.317ZM55.6176 18.8857C55.6195 32.7293 37.1239 36.9304 33.0418 36.7671C29.6554 36.6316 30.1839 34.9702 32.3886 34.2354C34.5928 33.5012 44.6418 30.2717 45.4117 24.1111C45.6972 21.8247 41.4888 21.5262 27.8088 21.4984C14.1557 21.4705 9.92046 21.825 10.2062 24.1111C10.9762 30.2713 21.0248 33.5008 23.2293 34.2354C25.4338 34.9702 25.9619 36.6316 22.5761 36.7671C18.4937 36.9304 -0.00221504 32.729 1.9897e-07 18.8857C0.00189897 4.98791 18.4937 0.841309 22.5761 1.0046C25.9619 1.14005 25.4338 2.80084 23.2293 3.53599C21.0248 4.27081 10.9762 7.49999 10.2062 13.6606C9.92046 15.9467 14.0683 16.2745 27.8088 16.2733C41.4892 16.272 45.6972 15.9467 45.4117 13.6606C44.6414 7.50031 34.5925 4.27081 32.3886 3.53599C30.1839 2.80116 29.6554 1.14037 33.0418 1.0046C37.1236 0.841309 55.6157 4.98791 55.6176 18.8857ZM9.41 15.922C9.02107 15.7505 8.77328 15.71 8.63182 15.804C8.49037 15.8983 8.30175 16.0163 7.97168 16.2049C7.64161 16.3935 7.47674 16.6293 7.94795 16.7945C10.1597 17.5682 24.6072 17.5489 27.8851 17.5489C31.1624 17.5489 45.6101 17.5682 47.8219 16.7945C48.2934 16.6296 48.1285 16.3935 47.7985 16.2049C47.4684 16.0163 47.2791 15.8983 47.1383 15.804C46.9969 15.7097 46.7491 15.7502 46.3601 15.922C44.5443 16.7239 45.593 17.0303 27.8854 17.0303C10.1768 17.0306 11.2259 16.7239 9.41 15.922ZM54.5556 19.298C54.6223 17.8148 54.0226 12.0162 47.9551 7.54651C41.8866 3.0768 36.1144 2.33691 34.7526 2.09988C33.3915 1.86317 32.0003 1.98152 34.5751 2.66223C45.0443 5.43001 48.4282 9.9146 50.3821 13.9697C52.3359 18.0252 48.4877 18.0249 45.9418 18.1138C43.4683 18.2002 34.4238 18.2306 27.8848 18.2322C21.3454 18.2306 12.3015 18.2002 9.8271 18.1138C7.28148 18.0249 3.4333 18.0252 5.38714 13.9697C7.34066 9.9146 10.7249 5.43001 21.1941 2.66223C23.7695 1.98152 22.378 1.86317 21.0163 2.09988C19.6545 2.33691 13.8826 3.0768 7.81409 7.54651C1.74655 12.0165 1.14749 17.8148 1.21363 19.298C1.26205 20.3825 1.56902 19.6534 1.59845 19.2388C1.6282 18.8243 1.97947 14.6005 5.30707 11.0646C5.6843 10.6637 5.92038 10.7817 5.63714 11.2767C5.35423 11.7719 2.85481 15.0729 3.06715 19.5059C3.2795 23.9389 6.70995 32.3018 21.8599 35.493C22.3081 35.587 23.3692 35.493 21.8837 35.0683C20.3982 34.6436 10.3936 32.4068 6.13272 25.1886C2.12378 18.398 8.46663 19.1528 11.6499 19.0819C14.5282 19.0176 23.3052 19.0695 27.3309 19.08V19.0819L27.8848 19.0812L28.4382 19.0819V19.08C32.4646 19.0695 41.2414 19.0176 44.1199 19.0819C47.3032 19.1528 53.646 18.398 49.6377 25.189C45.3766 32.4072 35.3723 34.6439 33.8865 35.0686C32.4013 35.4933 33.4618 35.5873 33.9099 35.4933C49.0599 32.3021 52.491 23.9393 52.703 19.5063C52.915 15.0732 50.4159 11.7722 50.133 11.277C49.8498 10.782 50.0862 10.6637 50.4631 11.0649C53.791 14.6005 54.1419 18.8246 54.1717 19.2392C54.2008 19.6534 54.5075 20.3829 54.5556 19.298Z" fill="white"/>
</svg>
