<svg width="77" height="54" viewBox="0 0 77 54" fill="none" xmlns="http://www.w3.org/2000/svg">
<path fill-rule="evenodd" clip-rule="evenodd" d="M25.044 27.0086L30.5323 18.9761C30.7425 18.6605 30.49 18.3031 30.0486 18.3031L25.8117 18.2715C25.4961 18.2715 24.8653 18.6711 24.592 19.0179L22.6788 21.5097L20.0189 24.9897L20.0398 18.9756C20.0398 18.5658 19.6086 18.3027 19.3459 18.3027H14.488C14.1516 18.3027 13.8466 18.4289 13.8364 19.049C13.8261 19.6589 14.5827 19.7851 14.5827 19.9531V36.0289C14.5827 36.3338 15.0032 36.7961 15.2979 36.7961L19.4611 36.7752C19.7558 36.7645 20.0078 36.344 20.0078 36.06L20.0181 29.3627L22.678 32.6534L25.4957 36.1231C25.7268 36.3965 26.1789 36.7752 26.6522 36.7752L31.1732 36.7436C31.6044 36.7436 31.5622 36.2178 31.4573 36.0813C29.3079 33.0653 27.1701 30.0411 25.044 27.0086ZM40.646 18.3035H35.8414C35.2738 18.3035 35.1475 18.64 35.0528 18.9974C35.1578 19.649 35.8414 19.8277 35.8414 19.8384V36.0608C35.8414 36.492 36.1045 36.776 36.4725 36.776L38.1968 36.7654L40.762 36.7445C41.2349 36.7445 41.3608 36.4608 41.3608 36.0608V18.9761C41.3608 18.5662 41.014 18.3035 40.646 18.3035Z" fill="white"/>
<path fill-rule="evenodd" clip-rule="evenodd" d="M55.2704 10.0185C50.1609 8.72542 44.4103 8 38.3332 8C38.291 8 38.2487 8.01025 38.1967 8.01025C32.6876 8.01025 27.4305 8.62009 22.6783 9.7029C9.33626 12.7521 0 19.565 0 27.4397C0 35.3149 9.33626 42.1273 22.6779 45.1762C27.4301 46.2594 32.6867 46.8688 38.1963 46.8688H38.3328C44.4099 46.8688 50.1605 46.1541 55.27 44.861C67.9391 41.6859 76.6762 35.0624 76.6762 27.4397C76.677 19.8175 67.9399 13.1936 55.2704 10.0185ZM55.2704 40.624C50.2346 41.7913 44.4624 42.4536 38.3332 42.4536C38.291 42.4536 38.2487 42.4433 38.1967 42.4433C32.6453 42.4433 27.378 41.886 22.6783 40.9081C10.9133 38.4584 2.79678 33.3382 2.79678 27.4402C2.79678 21.5421 10.9133 16.4219 22.6783 13.9723C27.378 12.9944 32.6453 12.437 38.1967 12.4267H38.3332C44.4624 12.4267 50.2346 13.089 55.2704 14.2559C66.3411 16.8002 73.8798 21.7626 73.8798 27.4397C73.8798 33.1169 66.3411 38.0797 55.2704 40.624Z" fill="white"/>
<path fill-rule="evenodd" clip-rule="evenodd" d="M58.5819 18.9974C58.425 18.6396 58.1512 18.3035 57.7934 18.3035H51.2962C51.065 18.3035 50.7494 18.4928 50.7494 18.808C50.7392 19.733 51.7068 19.7019 51.6539 19.8384L46.1764 35.9977C46.0821 36.271 46.3235 36.7756 46.66 36.7756L50.4765 36.744C50.8125 36.744 51.2859 36.4604 51.4228 36.0501L53.231 30.6254C53.8409 28.8168 54.4511 27.0086 55.0499 25.2003C55.0819 25.127 55.1766 25.0848 55.2708 25.0848C55.4179 25.0848 55.5757 25.1372 55.6069 25.2426L59.1504 36.1137C59.2242 36.3555 59.718 36.7444 59.9803 36.7444L63.9546 36.776C64.1857 36.776 64.4595 36.3133 64.3862 36.103L58.5819 18.9974Z" fill="white"/>
</svg>
