<svg width="219" height="40" viewBox="0 0 219 40" fill="none" xmlns="http://www.w3.org/2000/svg">
<path d="M12.342 17.7H5.192L3.828 21H0.176L7.04 5.6H10.56L17.446 21H13.706L12.342 17.7ZM11.22 14.994L8.778 9.098L6.336 14.994H11.22ZM28.2662 14.818C29.6596 15.2873 30.3562 16.226 30.3562 17.634C30.3562 18.7047 29.9529 19.5333 29.1462 20.12C28.3396 20.7067 27.1369 21 25.5382 21H19.2242V9.164H25.2742C26.7556 9.164 27.9142 9.43533 28.7502 9.978C29.5862 10.506 30.0042 11.254 30.0042 12.222C30.0042 12.8087 29.8502 13.3293 29.5422 13.784C29.2489 14.224 28.8236 14.5687 28.2662 14.818ZM22.3702 14.026H24.9662C26.1689 14.026 26.7702 13.6007 26.7702 12.75C26.7702 11.914 26.1689 11.496 24.9662 11.496H22.3702V14.026ZM25.2522 18.668C26.5136 18.668 27.1442 18.2353 27.1442 17.37C27.1442 16.9153 26.9976 16.5853 26.7042 16.38C26.4109 16.16 25.9489 16.05 25.3182 16.05H22.3702V18.668H25.2522ZM42.8538 11.98H38.8498V21H35.4398V11.98H31.4358V9.164H42.8538V11.98ZM49.7331 21.176C48.4864 21.176 47.3644 20.9193 46.3671 20.406C45.3844 19.878 44.6144 19.152 44.0571 18.228C43.4997 17.304 43.2211 16.2553 43.2211 15.082C43.2211 13.9087 43.4997 12.86 44.0571 11.936C44.6144 11.012 45.3844 10.2933 46.3671 9.78C47.3644 9.252 48.4864 8.988 49.7331 8.988C50.9797 8.988 52.0944 9.252 53.0771 9.78C54.0597 10.2933 54.8297 11.012 55.3871 11.936C55.9444 12.86 56.2231 13.9087 56.2231 15.082C56.2231 16.2553 55.9444 17.304 55.3871 18.228C54.8297 19.152 54.0597 19.878 53.0771 20.406C52.0944 20.9193 50.9797 21.176 49.7331 21.176ZM49.7331 18.36C50.6131 18.36 51.3317 18.0667 51.8891 17.48C52.4611 16.8787 52.7471 16.0793 52.7471 15.082C52.7471 14.0847 52.4611 13.2927 51.8891 12.706C51.3317 12.1047 50.6131 11.804 49.7331 11.804C48.8531 11.804 48.1271 12.1047 47.5551 12.706C46.9831 13.2927 46.6971 14.0847 46.6971 15.082C46.6971 16.0793 46.9831 16.8787 47.5551 17.48C48.1271 18.0667 48.8531 18.36 49.7331 18.36ZM65.5576 8.988C66.6576 8.988 67.6549 9.24467 68.5496 9.758C69.4589 10.2567 70.1703 10.968 70.6836 11.892C71.1969 12.8013 71.4536 13.8647 71.4536 15.082C71.4536 16.2993 71.1969 17.37 70.6836 18.294C70.1703 19.2033 69.4589 19.9147 68.5496 20.428C67.6549 20.9267 66.6576 21.176 65.5576 21.176C64.0469 21.176 62.8589 20.6993 61.9936 19.746V25.268H58.5616V9.164H61.8396V10.528C62.6903 9.50133 63.9296 8.988 65.5576 8.988ZM64.9636 18.36C65.8436 18.36 66.5623 18.0667 67.1196 17.48C67.6916 16.8787 67.9776 16.0793 67.9776 15.082C67.9776 14.0847 67.6916 13.2927 67.1196 12.706C66.5623 12.1047 65.8436 11.804 64.9636 11.804C64.0836 11.804 63.3576 12.1047 62.7856 12.706C62.2283 13.2927 61.9496 14.0847 61.9496 15.082C61.9496 16.0793 62.2283 16.8787 62.7856 17.48C63.3576 18.0667 64.0836 18.36 64.9636 18.36ZM73.859 9.164H77.269V16.204L83.033 9.164H86.179V21H82.769V13.96L77.027 21H73.859V9.164ZM99.4221 11.98H95.4181V21H92.0081V11.98H88.0041V9.164H99.4221V11.98ZM112.263 15.126C112.263 15.17 112.241 15.478 112.197 16.05H103.243C103.405 16.7833 103.786 17.3627 104.387 17.788C104.989 18.2133 105.737 18.426 106.631 18.426C107.247 18.426 107.79 18.338 108.259 18.162C108.743 17.9713 109.191 17.678 109.601 17.282L111.427 19.262C110.313 20.538 108.685 21.176 106.543 21.176C105.209 21.176 104.028 20.9193 103.001 20.406C101.975 19.878 101.183 19.152 100.625 18.228C100.068 17.304 99.7894 16.2553 99.7894 15.082C99.7894 13.9233 100.061 12.882 100.603 11.958C101.161 11.0193 101.916 10.2933 102.869 9.78C103.837 9.252 104.915 8.988 106.103 8.988C107.262 8.988 108.311 9.23733 109.249 9.736C110.188 10.2347 110.921 10.9533 111.449 11.892C111.992 12.816 112.263 13.894 112.263 15.126ZM106.125 11.584C105.348 11.584 104.695 11.804 104.167 12.244C103.639 12.684 103.317 13.2853 103.199 14.048H109.029C108.912 13.3 108.589 12.706 108.061 12.266C107.533 11.8113 106.888 11.584 106.125 11.584ZM124.43 11.98H120.426V21H117.016V11.98H113.012V9.164H124.43V11.98Z" fill="#FF0000"/>
<path d="M140.036 21.264C138.467 21.264 137.044 20.9267 135.768 20.252C134.507 19.5627 133.509 18.6167 132.776 17.414C132.057 16.1967 131.698 14.8253 131.698 13.3C131.698 11.7747 132.057 10.4107 132.776 9.208C133.509 7.99067 134.507 7.04467 135.768 6.37C137.044 5.68067 138.474 5.336 140.058 5.336C141.393 5.336 142.595 5.57067 143.666 6.04C144.751 6.50933 145.661 7.184 146.394 8.064L144.106 10.176C143.065 8.97333 141.774 8.372 140.234 8.372C139.281 8.372 138.43 8.58467 137.682 9.01C136.934 9.42067 136.347 10 135.922 10.748C135.511 11.496 135.306 12.3467 135.306 13.3C135.306 14.2533 135.511 15.104 135.922 15.852C136.347 16.6 136.934 17.1867 137.682 17.612C138.43 18.0227 139.281 18.228 140.234 18.228C141.774 18.228 143.065 17.6193 144.106 16.402L146.394 18.514C145.661 19.4087 144.751 20.0907 143.666 20.56C142.581 21.0293 141.371 21.264 140.036 21.264ZM159.551 15.126C159.551 15.17 159.529 15.478 159.485 16.05H150.531C150.692 16.7833 151.073 17.3627 151.675 17.788C152.276 18.2133 153.024 18.426 153.919 18.426C154.535 18.426 155.077 18.338 155.547 18.162C156.031 17.9713 156.478 17.678 156.889 17.282L158.715 19.262C157.6 20.538 155.972 21.176 153.831 21.176C152.496 21.176 151.315 20.9193 150.289 20.406C149.262 19.878 148.47 19.152 147.913 18.228C147.355 17.304 147.077 16.2553 147.077 15.082C147.077 13.9233 147.348 12.882 147.891 11.958C148.448 11.0193 149.203 10.2933 150.157 9.78C151.125 9.252 152.203 8.988 153.391 8.988C154.549 8.988 155.598 9.23733 156.537 9.736C157.475 10.2347 158.209 10.9533 158.737 11.892C159.279 12.816 159.551 13.894 159.551 15.126ZM153.413 11.584C152.635 11.584 151.983 11.804 151.455 12.244C150.927 12.684 150.604 13.2853 150.487 14.048H156.317C156.199 13.3 155.877 12.706 155.349 12.266C154.821 11.8113 154.175 11.584 153.413 11.584ZM169.155 8.988C170.255 8.988 171.253 9.24467 172.147 9.758C173.057 10.2567 173.768 10.968 174.281 11.892C174.795 12.8013 175.051 13.8647 175.051 15.082C175.051 16.2993 174.795 17.37 174.281 18.294C173.768 19.2033 173.057 19.9147 172.147 20.428C171.253 20.9267 170.255 21.176 169.155 21.176C167.645 21.176 166.457 20.6993 165.591 19.746V25.268H162.159V9.164H165.437V10.528C166.288 9.50133 167.527 8.988 169.155 8.988ZM168.561 18.36C169.441 18.36 170.16 18.0667 170.717 17.48C171.289 16.8787 171.575 16.0793 171.575 15.082C171.575 14.0847 171.289 13.2927 170.717 12.706C170.16 12.1047 169.441 11.804 168.561 11.804C167.681 11.804 166.955 12.1047 166.383 12.706C165.826 13.2927 165.547 14.0847 165.547 15.082C165.547 16.0793 165.826 16.8787 166.383 17.48C166.955 18.0667 167.681 18.36 168.561 18.36ZM186.499 14.818C187.892 15.2873 188.589 16.226 188.589 17.634C188.589 18.7047 188.185 19.5333 187.379 20.12C186.572 20.7067 185.369 21 183.771 21H177.457V9.164H183.507C184.988 9.164 186.147 9.43533 186.983 9.978C187.819 10.506 188.237 11.254 188.237 12.222C188.237 12.8087 188.083 13.3293 187.775 13.784C187.481 14.224 187.056 14.5687 186.499 14.818ZM180.603 14.026H183.199C184.401 14.026 185.003 13.6007 185.003 12.75C185.003 11.914 184.401 11.496 183.199 11.496H180.603V14.026ZM183.485 18.668C184.746 18.668 185.377 18.2353 185.377 17.37C185.377 16.9153 185.23 16.5853 184.937 16.38C184.643 16.16 184.181 16.05 183.551 16.05H180.603V18.668H183.485ZM191.142 9.164H194.552V16.204L200.316 9.164H203.462V21H200.052V13.96L194.31 21H191.142V9.164ZM212.393 21.176C211.132 21.176 209.995 20.9193 208.983 20.406C207.986 19.878 207.201 19.152 206.629 18.228C206.072 17.304 205.793 16.2553 205.793 15.082C205.793 13.9087 206.072 12.86 206.629 11.936C207.201 11.012 207.986 10.2933 208.983 9.78C209.995 9.252 211.132 8.988 212.393 8.988C213.64 8.988 214.725 9.252 215.649 9.78C216.588 10.2933 217.27 11.034 217.695 12.002L215.033 13.432C214.417 12.3467 213.53 11.804 212.371 11.804C211.477 11.804 210.736 12.0973 210.149 12.684C209.563 13.2707 209.269 14.07 209.269 15.082C209.269 16.094 209.563 16.8933 210.149 17.48C210.736 18.0667 211.477 18.36 212.371 18.36C213.545 18.36 214.432 17.8173 215.033 16.732L217.695 18.184C217.27 19.1227 216.588 19.856 215.649 20.384C214.725 20.912 213.64 21.176 212.393 21.176Z" fill="white"/>
<path d="M3.42 31.7C4.224 31.7 4.854 31.892 5.31 32.276C5.766 32.66 5.994 33.188 5.994 33.86C5.994 34.532 5.766 35.06 5.31 35.444C4.854 35.822 4.224 36.011 3.42 36.011H1.728V38H1.062V31.7H3.42ZM3.402 35.426C4.026 35.426 4.503 35.291 4.833 35.021C5.163 34.745 5.328 34.358 5.328 33.86C5.328 33.35 5.163 32.96 4.833 32.69C4.503 32.414 4.026 32.276 3.402 32.276H1.728V35.426H3.402ZM11.3244 35.831H7.36439C7.40039 36.323 7.58939 36.722 7.93139 37.028C8.27339 37.328 8.70539 37.478 9.22739 37.478C9.52139 37.478 9.79139 37.427 10.0374 37.325C10.2834 37.217 10.4964 37.061 10.6764 36.857L11.0364 37.271C10.8264 37.523 10.5624 37.715 10.2444 37.847C9.93239 37.979 9.58739 38.045 9.20939 38.045C8.72339 38.045 8.29139 37.943 7.91339 37.739C7.54139 37.529 7.25039 37.241 7.04039 36.875C6.83039 36.509 6.72539 36.095 6.72539 35.633C6.72539 35.171 6.82439 34.757 7.02239 34.391C7.22639 34.025 7.50239 33.74 7.85039 33.536C8.20439 33.332 8.60039 33.23 9.03839 33.23C9.47639 33.23 9.86939 33.332 10.2174 33.536C10.5654 33.74 10.8384 34.025 11.0364 34.391C11.2344 34.751 11.3334 35.165 11.3334 35.633L11.3244 35.831ZM9.03839 33.779C8.58239 33.779 8.19839 33.926 7.88639 34.22C7.58039 34.508 7.40639 34.886 7.36439 35.354H10.7214C10.6794 34.886 10.5024 34.508 10.1904 34.22C9.88439 33.926 9.50039 33.779 9.03839 33.779ZM18.0399 33.266V38H17.4549V34.256L15.5379 37.424H15.2499L13.3329 34.247V38H12.7479V33.266H13.3959L15.4029 36.677L17.4459 33.266H18.0399ZM21.8112 38.045C21.3552 38.045 20.9442 37.943 20.5782 37.739C20.2122 37.529 19.9242 37.241 19.7142 36.875C19.5042 36.509 19.3992 36.095 19.3992 35.633C19.3992 35.171 19.5042 34.757 19.7142 34.391C19.9242 34.025 20.2122 33.74 20.5782 33.536C20.9442 33.332 21.3552 33.23 21.8112 33.23C22.2672 33.23 22.6782 33.332 23.0442 33.536C23.4102 33.74 23.6952 34.025 23.8992 34.391C24.1092 34.757 24.2142 35.171 24.2142 35.633C24.2142 36.095 24.1092 36.509 23.8992 36.875C23.6952 37.241 23.4102 37.529 23.0442 37.739C22.6782 37.943 22.2672 38.045 21.8112 38.045ZM21.8112 37.478C22.1472 37.478 22.4472 37.403 22.7112 37.253C22.9812 37.097 23.1912 36.878 23.3412 36.596C23.4912 36.314 23.5662 35.993 23.5662 35.633C23.5662 35.273 23.4912 34.952 23.3412 34.67C23.1912 34.388 22.9812 34.172 22.7112 34.022C22.4472 33.866 22.1472 33.788 21.8112 33.788C21.4752 33.788 21.1722 33.866 20.9022 34.022C20.6382 34.172 20.4282 34.388 20.2722 34.67C20.1222 34.952 20.0472 35.273 20.0472 35.633C20.0472 35.993 20.1222 36.314 20.2722 36.596C20.4282 36.878 20.6382 37.097 20.9022 37.253C21.1722 37.403 21.4752 37.478 21.8112 37.478ZM25.5799 33.266H26.2189V35.363H29.1979V33.266H29.8369V38H29.1979V35.912H26.2189V38H25.5799V33.266ZM34.9831 33.833H33.1921V38H32.5531V33.833H30.7621V33.266H34.9831V33.833ZM38.2625 33.266H38.9015V37.028L42.0605 33.266H42.6275V38H41.9885V34.238L38.8385 38H38.2625V33.266ZM49.1183 35.534C49.4543 35.612 49.7123 35.747 49.8923 35.939C50.0783 36.131 50.1713 36.365 50.1713 36.641C50.1713 36.917 50.0753 37.163 49.8833 37.379C49.6973 37.595 49.4423 37.763 49.1183 37.883C48.7943 37.997 48.4373 38.054 48.0473 38.054C47.7053 38.054 47.3693 38.006 47.0393 37.91C46.7093 37.808 46.4213 37.661 46.1753 37.469L46.3913 36.992C46.6073 37.154 46.8593 37.28 47.1473 37.37C47.4353 37.46 47.7263 37.505 48.0203 37.505C48.4583 37.505 48.8153 37.424 49.0913 37.262C49.3733 37.094 49.5143 36.869 49.5143 36.587C49.5143 36.335 49.4003 36.14 49.1723 36.002C48.9443 35.858 48.6323 35.786 48.2363 35.786H47.4263V35.318H48.2003C48.5543 35.318 48.8393 35.252 49.0553 35.12C49.2713 34.982 49.3793 34.799 49.3793 34.571C49.3793 34.319 49.2563 34.121 49.0103 33.977C48.7703 33.833 48.4553 33.761 48.0653 33.761C47.5553 33.761 47.0513 33.89 46.5533 34.148L46.3733 33.653C46.9373 33.359 47.5223 33.212 48.1283 33.212C48.4883 33.212 48.8123 33.266 49.1003 33.374C49.3943 33.476 49.6223 33.623 49.7843 33.815C49.9523 34.007 50.0363 34.229 50.0363 34.481C50.0363 34.721 49.9523 34.934 49.7843 35.12C49.6223 35.306 49.4003 35.444 49.1183 35.534ZM53.2509 33.23C53.8689 33.23 54.3429 33.386 54.6729 33.698C55.0029 34.004 55.1679 34.46 55.1679 35.066V38H54.5559V37.262C54.4119 37.508 54.1989 37.7 53.9169 37.838C53.6409 37.976 53.3109 38.045 52.9269 38.045C52.3989 38.045 51.9789 37.919 51.6669 37.667C51.3549 37.415 51.1989 37.082 51.1989 36.668C51.1989 36.266 51.3429 35.942 51.6309 35.696C51.9249 35.45 52.3899 35.327 53.0259 35.327H54.5289V35.039C54.5289 34.631 54.4149 34.322 54.1869 34.112C53.9589 33.896 53.6259 33.788 53.1879 33.788C52.8879 33.788 52.5999 33.839 52.3239 33.941C52.0479 34.037 51.8109 34.172 51.6129 34.346L51.3249 33.869C51.5649 33.665 51.8529 33.509 52.1889 33.401C52.5249 33.287 52.8789 33.23 53.2509 33.23ZM53.0259 37.541C53.3859 37.541 53.6949 37.46 53.9529 37.298C54.2109 37.13 54.4029 36.89 54.5289 36.578V35.804H53.0439C52.2339 35.804 51.8289 36.086 51.8289 36.65C51.8289 36.926 51.9339 37.145 52.1439 37.307C52.3539 37.463 52.6479 37.541 53.0259 37.541ZM61.117 33.266V38H60.478V33.833H57.508V38H56.869V33.266H61.117ZM66.5064 33.266V38H65.8674V36.029C65.3214 36.269 64.7844 36.389 64.2564 36.389C63.6864 36.389 63.2424 36.26 62.9244 36.002C62.6064 35.738 62.4474 35.345 62.4474 34.823V33.266H63.0864V34.787C63.0864 35.141 63.2004 35.411 63.4284 35.597C63.6564 35.777 63.9714 35.867 64.3734 35.867C64.8174 35.867 65.3154 35.75 65.8674 35.516V33.266H66.5064ZM69.9501 33.23C70.5681 33.23 71.0421 33.386 71.3721 33.698C71.7021 34.004 71.8671 34.46 71.8671 35.066V38H71.2551V37.262C71.1111 37.508 70.8981 37.7 70.6161 37.838C70.3401 37.976 70.0101 38.045 69.6261 38.045C69.0981 38.045 68.6781 37.919 68.3661 37.667C68.0541 37.415 67.8981 37.082 67.8981 36.668C67.8981 36.266 68.0421 35.942 68.3301 35.696C68.6241 35.45 69.0891 35.327 69.7251 35.327H71.2281V35.039C71.2281 34.631 71.1141 34.322 70.8861 34.112C70.6581 33.896 70.3251 33.788 69.8871 33.788C69.5871 33.788 69.2991 33.839 69.0231 33.941C68.7471 34.037 68.5101 34.172 68.3121 34.346L68.0241 33.869C68.2641 33.665 68.5521 33.509 68.8881 33.401C69.2241 33.287 69.5781 33.23 69.9501 33.23ZM69.7251 37.541C70.0851 37.541 70.3941 37.46 70.6521 37.298C70.9101 37.13 71.1021 36.89 71.2281 36.578V35.804H69.7431C68.9331 35.804 68.5281 36.086 68.5281 36.65C68.5281 36.926 68.6331 37.145 68.8431 37.307C69.0531 37.463 69.3471 37.541 69.7251 37.541ZM75.5482 38.045C75.0802 38.045 74.6602 37.943 74.2882 37.739C73.9222 37.535 73.6342 37.25 73.4242 36.884C73.2142 36.512 73.1092 36.095 73.1092 35.633C73.1092 35.171 73.2142 34.757 73.4242 34.391C73.6342 34.025 73.9222 33.74 74.2882 33.536C74.6602 33.332 75.0802 33.23 75.5482 33.23C75.9562 33.23 76.3192 33.311 76.6372 33.473C76.9612 33.629 77.2162 33.86 77.4022 34.166L76.9252 34.49C76.7692 34.256 76.5712 34.082 76.3312 33.968C76.0912 33.848 75.8302 33.788 75.5482 33.788C75.2062 33.788 74.8972 33.866 74.6212 34.022C74.3512 34.172 74.1382 34.388 73.9822 34.67C73.8322 34.952 73.7572 35.273 73.7572 35.633C73.7572 35.999 73.8322 36.323 73.9822 36.605C74.1382 36.881 74.3512 37.097 74.6212 37.253C74.8972 37.403 75.2062 37.478 75.5482 37.478C75.8302 37.478 76.0912 37.421 76.3312 37.307C76.5712 37.193 76.7692 37.019 76.9252 36.785L77.4022 37.109C77.2162 37.415 76.9612 37.649 76.6372 37.811C76.3132 37.967 75.9502 38.045 75.5482 38.045ZM81.8816 33.833H80.0906V38H79.4516V33.833H77.6606V33.266H81.8816V33.833ZM82.8055 33.266H83.4445V37.028L86.6035 33.266H87.1705V38H86.5315V34.238L83.3815 38H82.8055V33.266ZM95.9742 37.442V39.143H95.3712V38H91.1322V39.143H90.5292V37.442H90.7992C91.1172 37.424 91.3332 37.19 91.4472 36.74C91.5612 36.29 91.6392 35.66 91.6812 34.85L91.7442 33.266H95.2362V37.442H95.9742ZM92.2662 34.886C92.2362 35.558 92.1792 36.113 92.0952 36.551C92.0112 36.983 91.8612 37.28 91.6452 37.442H94.5972V33.833H92.3202L92.2662 34.886ZM101.09 33.266V38H100.451V33.833H98.1825L98.1195 35.003C98.0715 35.987 97.9575 36.743 97.7775 37.271C97.5975 37.799 97.2765 38.063 96.8145 38.063C96.6885 38.063 96.5355 38.039 96.3555 37.991L96.4005 37.442C96.5085 37.466 96.5835 37.478 96.6255 37.478C96.8715 37.478 97.0575 37.364 97.1835 37.136C97.3095 36.908 97.3935 36.626 97.4355 36.29C97.4775 35.954 97.5135 35.51 97.5435 34.958L97.6245 33.266H101.09ZM106.542 33.266V38H105.957V36.434H104.472H104.292L103.194 38H102.501L103.68 36.344C103.314 36.242 103.032 36.068 102.834 35.822C102.636 35.576 102.537 35.264 102.537 34.886C102.537 34.358 102.717 33.956 103.077 33.68C103.437 33.404 103.929 33.266 104.553 33.266H106.542ZM103.185 34.904C103.185 35.606 103.632 35.957 104.526 35.957H105.957V33.833H104.571C103.647 33.833 103.185 34.19 103.185 34.904ZM114.068 33.833H111.359V38H110.72V33.266H114.068V33.833ZM117.43 33.23C117.874 33.23 118.276 33.332 118.636 33.536C118.996 33.734 119.278 34.016 119.482 34.382C119.686 34.748 119.788 35.165 119.788 35.633C119.788 36.107 119.686 36.527 119.482 36.893C119.278 37.259 118.996 37.544 118.636 37.748C118.282 37.946 117.88 38.045 117.43 38.045C117.046 38.045 116.698 37.967 116.386 37.811C116.08 37.649 115.828 37.415 115.63 37.109V39.746H114.991V33.266H115.603V34.202C115.795 33.89 116.047 33.65 116.359 33.482C116.677 33.314 117.034 33.23 117.43 33.23ZM117.385 37.478C117.715 37.478 118.015 37.403 118.285 37.253C118.555 37.097 118.765 36.878 118.915 36.596C119.071 36.314 119.149 35.993 119.149 35.633C119.149 35.273 119.071 34.955 118.915 34.679C118.765 34.397 118.555 34.178 118.285 34.022C118.015 33.866 117.715 33.788 117.385 33.788C117.049 33.788 116.746 33.866 116.476 34.022C116.212 34.178 116.002 34.397 115.846 34.679C115.696 34.955 115.621 35.273 115.621 35.633C115.621 35.993 115.696 36.314 115.846 36.596C116.002 36.878 116.212 37.097 116.476 37.253C116.746 37.403 117.049 37.478 117.385 37.478ZM125.052 33.266L122.685 38.567C122.493 39.011 122.271 39.326 122.019 39.512C121.767 39.698 121.464 39.791 121.11 39.791C120.882 39.791 120.669 39.755 120.471 39.683C120.273 39.611 120.102 39.503 119.958 39.359L120.255 38.882C120.495 39.122 120.783 39.242 121.119 39.242C121.335 39.242 121.518 39.182 121.668 39.062C121.824 38.942 121.968 38.738 122.1 38.45L122.307 37.991L120.192 33.266H120.858L122.64 37.289L124.422 33.266H125.052ZM128.229 35.534C128.565 35.612 128.823 35.747 129.003 35.939C129.189 36.131 129.282 36.365 129.282 36.641C129.282 36.917 129.186 37.163 128.994 37.379C128.808 37.595 128.553 37.763 128.229 37.883C127.905 37.997 127.548 38.054 127.158 38.054C126.816 38.054 126.48 38.006 126.15 37.91C125.82 37.808 125.532 37.661 125.286 37.469L125.502 36.992C125.718 37.154 125.97 37.28 126.258 37.37C126.546 37.46 126.837 37.505 127.131 37.505C127.569 37.505 127.926 37.424 128.202 37.262C128.484 37.094 128.625 36.869 128.625 36.587C128.625 36.335 128.511 36.14 128.283 36.002C128.055 35.858 127.743 35.786 127.347 35.786H126.537V35.318H127.311C127.665 35.318 127.95 35.252 128.166 35.12C128.382 34.982 128.49 34.799 128.49 34.571C128.49 34.319 128.367 34.121 128.121 33.977C127.881 33.833 127.566 33.761 127.176 33.761C126.666 33.761 126.162 33.89 125.664 34.148L125.484 33.653C126.048 33.359 126.633 33.212 127.239 33.212C127.599 33.212 127.923 33.266 128.211 33.374C128.505 33.476 128.733 33.623 128.895 33.815C129.063 34.007 129.147 34.229 129.147 34.481C129.147 34.721 129.063 34.934 128.895 35.12C128.733 35.306 128.511 35.444 128.229 35.534ZM132.685 38.045C132.229 38.045 131.818 37.943 131.452 37.739C131.086 37.529 130.798 37.241 130.588 36.875C130.378 36.509 130.273 36.095 130.273 35.633C130.273 35.171 130.378 34.757 130.588 34.391C130.798 34.025 131.086 33.74 131.452 33.536C131.818 33.332 132.229 33.23 132.685 33.23C133.141 33.23 133.552 33.332 133.918 33.536C134.284 33.74 134.569 34.025 134.773 34.391C134.983 34.757 135.088 35.171 135.088 35.633C135.088 36.095 134.983 36.509 134.773 36.875C134.569 37.241 134.284 37.529 133.918 37.739C133.552 37.943 133.141 38.045 132.685 38.045ZM132.685 37.478C133.021 37.478 133.321 37.403 133.585 37.253C133.855 37.097 134.065 36.878 134.215 36.596C134.365 36.314 134.44 35.993 134.44 35.633C134.44 35.273 134.365 34.952 134.215 34.67C134.065 34.388 133.855 34.172 133.585 34.022C133.321 33.866 133.021 33.788 132.685 33.788C132.349 33.788 132.046 33.866 131.776 34.022C131.512 34.172 131.302 34.388 131.146 34.67C130.996 34.952 130.921 35.273 130.921 35.633C130.921 35.993 130.996 36.314 131.146 36.596C131.302 36.878 131.512 37.097 131.776 37.253C132.046 37.403 132.349 37.478 132.685 37.478ZM139.469 35.552C140.111 35.702 140.432 36.089 140.432 36.713C140.432 37.127 140.279 37.445 139.973 37.667C139.667 37.889 139.211 38 138.605 38H136.454V33.266H138.542C139.082 33.266 139.505 33.371 139.811 33.581C140.117 33.791 140.27 34.091 140.27 34.481C140.27 34.739 140.198 34.961 140.054 35.147C139.916 35.327 139.721 35.462 139.469 35.552ZM137.075 35.372H138.497C138.863 35.372 139.142 35.303 139.334 35.165C139.532 35.027 139.631 34.826 139.631 34.562C139.631 34.298 139.532 34.1 139.334 33.968C139.142 33.836 138.863 33.77 138.497 33.77H137.075V35.372ZM138.578 37.496C138.986 37.496 139.292 37.43 139.496 37.298C139.7 37.166 139.802 36.959 139.802 36.677C139.802 36.395 139.709 36.188 139.523 36.056C139.337 35.918 139.043 35.849 138.641 35.849H137.075V37.496H138.578ZM143.919 34.94C144.513 34.946 144.966 35.078 145.278 35.336C145.59 35.594 145.746 35.966 145.746 36.452C145.746 36.956 145.578 37.343 145.242 37.613C144.906 37.883 144.426 38.015 143.802 38.009L141.93 38V33.266H142.569V34.922L143.919 34.94ZM146.538 33.266H147.177V38H146.538V33.266ZM143.766 37.523C144.204 37.529 144.534 37.442 144.756 37.262C144.984 37.076 145.098 36.806 145.098 36.452C145.098 36.104 144.987 35.846 144.765 35.678C144.543 35.51 144.21 35.423 143.766 35.417L142.569 35.399V37.505L143.766 37.523ZM151.957 38L150.454 36.02L148.942 38H148.222L150.094 35.57L148.312 33.266H149.032L150.454 35.12L151.876 33.266H152.578L150.796 35.57L152.686 38H151.957ZM157.718 33.23C158.336 33.23 158.81 33.386 159.14 33.698C159.47 34.004 159.635 34.46 159.635 35.066V38H159.023V37.262C158.879 37.508 158.666 37.7 158.384 37.838C158.108 37.976 157.778 38.045 157.394 38.045C156.866 38.045 156.446 37.919 156.134 37.667C155.822 37.415 155.666 37.082 155.666 36.668C155.666 36.266 155.81 35.942 156.098 35.696C156.392 35.45 156.857 35.327 157.493 35.327H158.996V35.039C158.996 34.631 158.882 34.322 158.654 34.112C158.426 33.896 158.093 33.788 157.655 33.788C157.355 33.788 157.067 33.839 156.791 33.941C156.515 34.037 156.278 34.172 156.08 34.346L155.792 33.869C156.032 33.665 156.32 33.509 156.656 33.401C156.992 33.287 157.346 33.23 157.718 33.23ZM157.493 37.541C157.853 37.541 158.162 37.46 158.42 37.298C158.678 37.13 158.87 36.89 158.996 36.578V35.804H157.511C156.701 35.804 156.296 36.086 156.296 36.65C156.296 36.926 156.401 37.145 156.611 37.307C156.821 37.463 157.115 37.541 157.493 37.541ZM164.351 35.552C164.993 35.702 165.314 36.089 165.314 36.713C165.314 37.127 165.161 37.445 164.855 37.667C164.549 37.889 164.093 38 163.487 38H161.336V33.266H163.424C163.964 33.266 164.387 33.371 164.693 33.581C164.999 33.791 165.152 34.091 165.152 34.481C165.152 34.739 165.08 34.961 164.936 35.147C164.798 35.327 164.603 35.462 164.351 35.552ZM161.957 35.372H163.379C163.745 35.372 164.024 35.303 164.216 35.165C164.414 35.027 164.513 34.826 164.513 34.562C164.513 34.298 164.414 34.1 164.216 33.968C164.024 33.836 163.745 33.77 163.379 33.77H161.957V35.372ZM163.46 37.496C163.868 37.496 164.174 37.43 164.378 37.298C164.582 37.166 164.684 36.959 164.684 36.677C164.684 36.395 164.591 36.188 164.405 36.056C164.219 35.918 163.925 35.849 163.523 35.849H161.957V37.496H163.46ZM170.141 33.833H168.35V38H167.711V33.833H165.92V33.266H170.141V33.833ZM172.799 38.045C172.343 38.045 171.932 37.943 171.566 37.739C171.2 37.529 170.912 37.241 170.702 36.875C170.492 36.509 170.387 36.095 170.387 35.633C170.387 35.171 170.492 34.757 170.702 34.391C170.912 34.025 171.2 33.74 171.566 33.536C171.932 33.332 172.343 33.23 172.799 33.23C173.255 33.23 173.666 33.332 174.032 33.536C174.398 33.74 174.683 34.025 174.887 34.391C175.097 34.757 175.202 35.171 175.202 35.633C175.202 36.095 175.097 36.509 174.887 36.875C174.683 37.241 174.398 37.529 174.032 37.739C173.666 37.943 173.255 38.045 172.799 38.045ZM172.799 37.478C173.135 37.478 173.435 37.403 173.699 37.253C173.969 37.097 174.179 36.878 174.329 36.596C174.479 36.314 174.554 35.993 174.554 35.633C174.554 35.273 174.479 34.952 174.329 34.67C174.179 34.388 173.969 34.172 173.699 34.022C173.435 33.866 173.135 33.788 172.799 33.788C172.463 33.788 172.16 33.866 171.89 34.022C171.626 34.172 171.416 34.388 171.26 34.67C171.11 34.952 171.035 35.273 171.035 35.633C171.035 35.993 171.11 36.314 171.26 36.596C171.416 36.878 171.626 37.097 171.89 37.253C172.16 37.403 172.463 37.478 172.799 37.478ZM181.859 33.266V38H181.274V34.256L179.357 37.424H179.069L177.152 34.247V38H176.567V33.266H177.215L179.222 36.677L181.265 33.266H181.859ZM185.631 38.045C185.175 38.045 184.764 37.943 184.398 37.739C184.032 37.529 183.744 37.241 183.534 36.875C183.324 36.509 183.219 36.095 183.219 35.633C183.219 35.171 183.324 34.757 183.534 34.391C183.744 34.025 184.032 33.74 184.398 33.536C184.764 33.332 185.175 33.23 185.631 33.23C186.087 33.23 186.498 33.332 186.864 33.536C187.23 33.74 187.515 34.025 187.719 34.391C187.929 34.757 188.034 35.171 188.034 35.633C188.034 36.095 187.929 36.509 187.719 36.875C187.515 37.241 187.23 37.529 186.864 37.739C186.498 37.943 186.087 38.045 185.631 38.045ZM185.631 37.478C185.967 37.478 186.267 37.403 186.531 37.253C186.801 37.097 187.011 36.878 187.161 36.596C187.311 36.314 187.386 35.993 187.386 35.633C187.386 35.273 187.311 34.952 187.161 34.67C187.011 34.388 186.801 34.172 186.531 34.022C186.267 33.866 185.967 33.788 185.631 33.788C185.295 33.788 184.992 33.866 184.722 34.022C184.458 34.172 184.248 34.388 184.092 34.67C183.942 34.952 183.867 35.273 183.867 35.633C183.867 35.993 183.942 36.314 184.092 36.596C184.248 36.878 184.458 37.097 184.722 37.253C184.992 37.403 185.295 37.478 185.631 37.478ZM191.694 33.383C192.132 33.383 192.522 33.482 192.864 33.68C193.212 33.872 193.482 34.145 193.674 34.499C193.866 34.847 193.962 35.246 193.962 35.696C193.962 36.158 193.86 36.569 193.656 36.929C193.458 37.283 193.179 37.559 192.819 37.757C192.459 37.955 192.045 38.054 191.577 38.054C190.791 38.054 190.182 37.778 189.75 37.226C189.318 36.674 189.102 35.912 189.102 34.94C189.102 33.926 189.294 33.149 189.678 32.609C190.068 32.069 190.674 31.703 191.496 31.511L193.62 31.025L193.728 31.61L191.73 32.069C191.052 32.219 190.554 32.486 190.236 32.87C189.918 33.248 189.744 33.809 189.714 34.553C189.906 34.187 190.173 33.902 190.515 33.698C190.857 33.488 191.25 33.383 191.694 33.383ZM191.595 37.523C191.925 37.523 192.219 37.448 192.477 37.298C192.741 37.142 192.945 36.926 193.089 36.65C193.239 36.374 193.314 36.062 193.314 35.714C193.314 35.366 193.242 35.06 193.098 34.796C192.954 34.532 192.75 34.328 192.486 34.184C192.228 34.034 191.931 33.959 191.595 33.959C191.259 33.959 190.959 34.034 190.695 34.184C190.437 34.328 190.233 34.532 190.083 34.796C189.939 35.06 189.867 35.366 189.867 35.714C189.867 36.062 189.939 36.374 190.083 36.65C190.233 36.926 190.44 37.142 190.704 37.298C190.968 37.448 191.265 37.523 191.595 37.523ZM195.332 33.266H195.971V37.028L199.13 33.266H199.697V38H199.058V34.238L195.908 38H195.332V33.266ZM205.398 33.266V38H204.759V33.833H202.491L202.428 35.003C202.38 35.987 202.266 36.743 202.086 37.271C201.906 37.799 201.585 38.063 201.123 38.063C200.997 38.063 200.844 38.039 200.664 37.991L200.709 37.442C200.817 37.466 200.892 37.478 200.934 37.478C201.18 37.478 201.366 37.364 201.492 37.136C201.618 36.908 201.702 36.626 201.744 36.29C201.786 35.954 201.822 35.51 201.852 34.958L201.933 33.266H205.398ZM211.355 35.831H207.395C207.431 36.323 207.62 36.722 207.962 37.028C208.304 37.328 208.736 37.478 209.258 37.478C209.552 37.478 209.822 37.427 210.068 37.325C210.314 37.217 210.527 37.061 210.707 36.857L211.067 37.271C210.857 37.523 210.593 37.715 210.275 37.847C209.963 37.979 209.618 38.045 209.24 38.045C208.754 38.045 208.322 37.943 207.944 37.739C207.572 37.529 207.281 37.241 207.071 36.875C206.861 36.509 206.756 36.095 206.756 35.633C206.756 35.171 206.855 34.757 207.053 34.391C207.257 34.025 207.533 33.74 207.881 33.536C208.235 33.332 208.631 33.23 209.069 33.23C209.507 33.23 209.9 33.332 210.248 33.536C210.596 33.74 210.869 34.025 211.067 34.391C211.265 34.751 211.364 35.165 211.364 35.633L211.355 35.831ZM209.069 33.779C208.613 33.779 208.229 33.926 207.917 34.22C207.611 34.508 207.437 34.886 207.395 35.354H210.752C210.71 34.886 210.533 34.508 210.221 34.22C209.915 33.926 209.531 33.779 209.069 33.779ZM212.778 33.266H213.417V37.028L216.576 33.266H217.143V38H216.504V34.238L213.354 38H212.778V33.266ZM214.929 32.582C214.521 32.582 214.197 32.48 213.957 32.276C213.717 32.072 213.594 31.784 213.588 31.412H214.047C214.053 31.646 214.137 31.835 214.299 31.979C214.461 32.117 214.671 32.186 214.929 32.186C215.187 32.186 215.397 32.117 215.559 31.979C215.727 31.835 215.814 31.646 215.82 31.412H216.279C216.273 31.784 216.147 32.072 215.901 32.276C215.661 32.48 215.337 32.582 214.929 32.582Z" fill="white"/>
</svg>
