<svg width="54" height="54" viewBox="0 0 54 54" fill="none" xmlns="http://www.w3.org/2000/svg">
<path fill-rule="evenodd" clip-rule="evenodd" d="M40.8666 33.0197H13.1807C11.477 26.3492 10.6014 23.5348 6.88631 17.8581L11.0037 12.276H43.044L47.161 17.8581C43.2096 23.9133 42.665 26.2786 40.8666 33.0197ZM25.8878 15.1853C25.9115 15.2326 25.7695 15.3745 25.7459 15.4218C25.3436 15.3036 24.823 15.1853 24.3971 15.3982C23.9948 15.5874 23.1192 15.611 22.4567 15.753L22.3384 15.8712C22.22 16.0838 22.1254 16.3206 22.1491 16.5572C22.1491 16.5572 23.1666 16.6518 23.3086 16.7227C23.4505 16.8174 23.8055 16.9829 23.9001 17.2668C23.8291 17.456 23.6872 17.6216 23.5215 17.7871C22.5513 18.52 21.0842 19.8449 20.7766 20.318C20.4453 20.7911 20.043 21.3824 19.9011 21.9264C19.7591 22.4941 19.9247 22.7779 20.0194 23.1327C19.1438 23.2983 18.0317 23.3929 17.2744 23.4405L17.0851 23.5115C17.0851 23.8663 17.0141 24.2684 17.0851 24.5759C17.8897 25.1909 18.9309 25.6403 19.6171 26.1133C18.221 27.6271 17.1798 29.3538 15.5234 30.6074C14.9318 30.9622 14.1036 31.7195 13.8669 31.9557C13.6543 32.1682 13.6776 32.3578 13.6776 32.3578C13.9379 32.4287 14.3402 32.3814 14.6005 32.4054C15.0264 32.3817 15.4287 32.003 15.618 31.5772C15.902 31.388 16.1149 31.0095 16.4462 30.9386C17.0615 30.6311 17.2744 29.9215 17.6767 29.4488C18.1027 29.0463 18.363 28.5499 18.8362 28.2425C19.4988 27.84 19.7827 27.0595 20.4216 26.5631L21.4865 27.296C22.0307 27.5089 22.6223 27.2727 23.2139 27.296L23.4742 27.1304C23.4505 26.7993 23.1429 26.5391 22.8826 26.3735C22.5277 26.1133 22.291 26.5628 21.9361 26.5154C21.6285 26.3972 21.2262 26.4445 21.0132 26.137C21.5811 25.8059 21.9598 25.3328 22.575 25.0963L23.4979 25.2855C25.3199 24.9543 27.4733 24.6469 29.248 24.8834C29.6973 25.0017 30.0286 25.4747 30.2655 25.8532C30.9518 26.9175 29.508 27.367 29.13 28.1475C27.9702 29.4008 26.1721 30.2999 25.5329 31.979C25.5092 32.1919 25.4382 32.4284 25.5329 32.6416C25.9352 32.6179 26.2664 32.4287 26.6214 32.2868C27.071 32.1212 26.858 31.861 26.8817 31.6009C26.858 31.1751 27.142 30.844 27.3789 30.5601C27.7809 30.7257 27.9465 30.2763 28.0888 30.0398C28.9407 28.6915 31.236 27.6271 31.5197 27.3906C31.8033 27.1541 31.9453 27.1304 31.9926 26.8939C32.0399 26.6574 31.614 26.0424 31.709 25.4274C32.7502 25.7349 33.7913 26.0424 34.7375 26.6101C35.6131 27.0831 36.1107 27.9583 36.6312 28.7628C37.5061 30.0871 38.2637 31.932 39.5415 32.5473C39.8251 32.7365 40.2041 32.7365 40.3457 32.6419C40.2514 32.1689 39.9908 31.7668 39.9671 31.2464C39.8251 31.3174 39.6595 31.3647 39.5178 31.3174C39.1152 31.2937 38.8553 30.8446 38.7843 30.5605C38.7366 30.3003 38.8079 29.9455 38.8079 29.9455C38.2397 29.7562 37.6954 29.1649 37.3641 28.6919C37.0565 28.2428 36.4649 27.0365 36.5123 25.9954C35.0685 25.7352 34.1226 23.4882 34.0043 22.8969C33.9093 22.3055 34.0513 21.998 34.1463 21.5723C33.578 21.0519 32.8921 20.6498 32.0876 20.5315C31.3064 20.4133 28.3248 20.4842 26.5028 20.7208C26.1005 20.7681 25.5562 20.8627 25.2486 20.5315C25.083 20.3896 25.012 19.9639 25.1066 19.68C25.2013 19.3962 25.7455 18.8522 25.9822 18.4974C26.2425 18.1426 26.6447 17.362 26.9524 16.818C27.2126 16.9126 27.6146 17.0072 27.9695 16.9363C28.3245 16.8653 28.7744 16.7234 28.7271 16.4632C28.7034 16.2267 27.7336 16.0138 27.213 16.1557C26.9527 16.1794 26.6684 15.9665 26.6447 15.6827C26.6684 15.5407 26.8104 15.4698 26.905 15.4225C28.1588 15.6827 29.7683 15.8009 30.9274 15.5644C32.2056 15.3279 33.7197 14.8548 34.5009 13.5775C34.051 13.5066 33.4361 13.412 33.1754 13.412C32.7498 14.1925 31.685 14.9021 30.6675 14.9967C30.1945 15.044 29.9812 14.7602 29.7206 14.5237C29.058 15.115 27.5909 15.1386 26.8577 14.9731C26.1241 14.7838 24.4677 13.885 23.7578 13.2227C23.6632 13.5775 23.5685 14.1216 23.5685 14.2635C24.1604 14.6649 25.8878 15.1853 25.8878 15.1853Z" fill="white"/>
<path fill-rule="evenodd" clip-rule="evenodd" d="M20.5163 24.7411C20.7056 25.0486 20.2087 25.2379 20.114 25.4744C19.5698 25.1905 18.9545 24.9304 18.5523 24.3863C19.2622 24.3863 19.9247 24.4573 20.5163 24.7411Z" fill="white"/>
<path fill-rule="evenodd" clip-rule="evenodd" d="M45.8592 6.74113H42.5937V0L39.7308 1.32457L36.8672 0V1.70335H36.2523V0L33.3887 1.32457L30.5258 0V1.70335H29.8626V0.0239816L26.9997 1.34855L24.1601 0.0239816V1.70335H23.5448V0L20.6816 1.32457L17.842 0V1.70335H17.1558V0L14.2926 1.32457L11.4293 0V6.74146H8.16379L0 17.8821C6.5547 26.137 8.3531 34.0611 8.96834 44.8469L27.0237 54L45.0313 44.8466C45.6706 31.1514 49.0777 24.0552 54 17.8817L45.8592 6.74113ZM39.7311 3.4297L41.8135 2.45992V9.50854H37.6724V2.45992L39.7311 3.4297ZM33.3891 3.40604L35.4714 2.45992V9.50854H31.3304V2.45992L33.3891 3.40604ZM27 3.4297L29.0824 2.48357V9.5322H24.9413V2.48357L27 3.4297ZM20.6819 3.4297L22.7643 2.45992V9.50854H18.6232V2.45992L20.6819 3.4297ZM44.0851 44.2549L27.0237 52.8647L9.96252 44.2549C9.34728 33.5637 7.73818 26.113 1.27814 17.8344L8.68471 7.75821H11.4296V10.3127L17.1561 10.2891V3.66623H17.8424V10.3127H23.5452V3.66623H24.1604V10.3364H29.8629V3.66623H30.5261V10.3127H36.2526V3.66623H36.8675V10.3127H42.594V7.75821H45.3389L52.7695 17.8581C47.8946 24.0315 44.7474 30.7254 44.0851 44.2549ZM14.2929 3.4297L16.3752 2.45992V9.50854H12.2105V2.45992L14.2929 3.4297Z" fill="white"/>
<path fill-rule="evenodd" clip-rule="evenodd" d="M13.3227 34.0368C13.7723 35.6689 14.2456 41.4639 14.2456 41.4639L27.0473 47.8975L39.8251 41.4402C39.8251 41.4402 40.1564 36.7333 40.7243 34.0368H13.3227ZM37.6011 40.7543H27.4493L27.26 40.1863H25.3909L25.2253 40.7543H23.9711L24.9176 36.9225H21.3682V40.7543H17.0851V35.3377H29.7449L31.259 39.5243H33.6257L33.6493 38.1997H32.9861L33.436 36.9225H31.0694V35.3614H37.4351V35.6689L36.7965 37.5375H37.6008L37.6011 40.7543Z" fill="white"/>
<path fill-rule="evenodd" clip-rule="evenodd" d="M26.8817 38.933L26.1954 36.8512L25.6749 38.933H26.8817Z" fill="white"/>
</svg>
